HIERARCHY
ROOT Hips
{
 OFFSET 0.000000 0.000000 0.000000
 CHANNELS 6 Xposition Yposition Zposition Yrotation Xrotation Zrotation
 JOINT Chest
 {
  OFFSET 0.000000 10.080317 -0.001081
  CHANNELS 3 Yrotation Xrotation Zrotation
  JOINT Chest2
  {
   OFFSET 0.000000 11.096852 0.001963
   CHANNELS 3 Yrotation Xrotation Zrotation
   JOINT Chest3
   {
    OFFSET 0.000000 10.026525 0.000000
    CHANNELS 3 Yrotation Xrotation Zrotation
    JOINT Chest4
    {
     OFFSET 0.000000 10.026525 0.000000
     CHANNELS 3 Yrotation Xrotation Zrotation
     JOINT Neck
     {
      OFFSET 0.000000 14.108171 0.000000
      CHANNELS 3 Yrotation Xrotation Zrotation
      JOINT Head
      {
       OFFSET 0.000000 9.333493 0.004668
       CHANNELS 3 Yrotation Xrotation Zrotation
       End Site
       {
        OFFSET 0.000000 17.851786 0.002438
       }
      }
     }
     JOINT RightCollar
     {
      OFFSET -3.071622 7.873185 0.000000
      CHANNELS 3 Yrotation Xrotation Zrotation
      JOINT RightShoulder
      {
       OFFSET -14.378659 0.000000 0.000000
       CHANNELS 3 Yrotation Xrotation Zrotation
       JOINT RightElbow
       {
        OFFSET -30.778728 0.000000 0.000000
        CHANNELS 3 Yrotation Xrotation Zrotation
        JOINT RightWrist
        {
         OFFSET -25.164217 0.000000 0.000000
         CHANNELS 3 Yrotation Xrotation Zrotation
         End Site
         {
          OFFSET -18.796788 0.000000 0.000000
         }
        }
       }
      }
     }
     JOINT LeftCollar
     {
      OFFSET 3.071622 7.873185 0.000000
      CHANNELS 3 Yrotation Xrotation Zrotation
      JOINT LeftShoulder
      {
       OFFSET 14.378659 0.000000 0.000000
       CHANNELS 3 Yrotation Xrotation Zrotation
       JOINT LeftElbow
       {
        OFFSET 30.778728 0.000000 0.000000
        CHANNELS 3 Yrotation Xrotation Zrotation
        JOINT LeftWrist
        {
         OFFSET 25.164217 0.000000 0.000000
         CHANNELS 3 Yrotation Xrotation Zrotation
         End Site
         {
          OFFSET 18.796788 0.000000 0.000000
         }
        }
       }
      }
     }
    }
   }
  }
 }
 JOINT RightHip
 {
  OFFSET -8.194923 0.005295 0.000540
  CHANNELS 3 Yrotation Xrotation Zrotation
  JOINT RightKnee
  {
   OFFSET 0.000000 -42.473320 -0.000511
   CHANNELS 3 Yrotation Xrotation Zrotation
   JOINT RightAnkle
   {
    OFFSET 0.000000 -41.474259 -0.000865
    CHANNELS 3 Yrotation Xrotation Zrotation
    JOINT RightToe
    {
     OFFSET 0.000000 -7.354994 16.712725
     CHANNELS 3 Yrotation Xrotation Zrotation
     End Site
     {
      OFFSET 0.000000 -1.553903 6.764158
     }
    }
   }
  }
 }
 JOINT LeftHip
 {
  OFFSET 8.194923 0.005295 0.000540
  CHANNELS 3 Yrotation Xrotation Zrotation
  JOINT LeftKnee
  {
   OFFSET 0.000000 -42.473320 -0.000511
   CHANNELS 3 Yrotation Xrotation Zrotation
   JOINT LeftAnkle
   {
    OFFSET 0.000000 -41.474259 -0.000865
    CHANNELS 3 Yrotation Xrotation Zrotation
    JOINT LeftToe
    {
     OFFSET 0.000000 -7.354994 16.712725
     CHANNELS 3 Yrotation Xrotation Zrotation
     End Site
     {
      OFFSET 0.000000 -1.553903 6.764158
     }
    }
   }
  }
 }
}
MOTION
Frames: 12
Frame Time: 0.016667
454.288399 90.549882 -293.384491 158.781436 23.754238 -5.113809 8.282344 9.381730 1.242389 3.644731 4.212712 0.414038 3.644731 4.212712 0.414038 2.729458 3.162136 0.285236 1.509712 12.483004 -0.043851 2.895811 -12.986602 -0.718009 -1.859513 -4.966184 14.569891 -13.852718 -6.812260 40.115309 56.467600 4.513183 24.173903 -3.973235 3.145762 -7.364149 -10.933024 -3.557083 -0.877181 11.542465 -15.924392 -50.988716 -37.684138 4.484913 -30.641800 3.805266 6.376691 22.156598 -11.939095 -29.871325 -4.028760 -79.341787 64.162956 -84.365696 -8.202568 7.581705 -7.137667 0.826592 0.296553 0.819928 2.188514 -40.574490 -0.467445 -6.421041 26.927538 -8.146535 0.793223 -10.135596 8.900452 -0.037645 0.592593 0.877752
454.527887 90.525830 -293.355790 159.076885 24.333099 -5.374345 8.200690 9.493814 1.166751 3.614690 4.263779 0.384498 3.614690 4.263779 0.384498 2.707079 3.200241 0.262991 1.487883 12.334798 0.076053 2.806745 -13.265180 -0.483964 -1.893291 -4.761196 14.582174 -13.863813 -6.809519 40.641128 56.508517 4.530646 24.027515 -3.997197 3.173577 -7.377690 -10.884268 -3.415054 -0.933185 11.410179 -15.751282 -51.497108 -37.696149 4.513361 -30.736499 3.764323 6.378025 22.061701 -12.169550 -29.720648 -4.162780 -79.511426 64.146194 -84.443415 -8.383872 7.403838 -7.151314 1.006000 0.428037 0.927112 1.976243 -41.260512 0.062185 -6.455040 27.178560 -8.331985 0.549673 -10.449254 8.673453 -0.030785 0.632833 0.862771
454.769712 90.491312 -293.333710 159.394630 24.906358 -5.639924 8.115952 9.613671 1.095354 3.580767 4.320953 0.355879 3.580767 4.320953 0.355879 2.681782 3.242931 0.241433 1.440839 12.167899 0.193973 2.670004 -13.578571 -0.242802 -1.931589 -4.515208 14.569212 -13.872000 -6.872701 41.238991 56.465418 4.578971 23.843238 -4.001570 3.181266 -7.414504 -10.855028 -3.300590 -1.030221 11.302225 -15.598239 -51.965624 -37.764407 4.471815 -30.828611 3.690968 6.352623 22.013950 -12.426274 -29.590317 -4.255697 -79.755899 64.111606 -84.614721 -8.611205 7.212990 -7.218765 1.198357 0.550191 1.041232 1.679353 -42.014220 0.627832 -6.549708 27.559564 -8.560339 0.380347 -10.775365 8.501479 -0.038833 0.628584 0.813853
455.007658 90.442780 -293.310456 159.763167 25.468875 -5.908198 8.027868 9.745073 1.033160 3.551493 4.384605 0.329737 3.551493 4.384605 0.329737 2.659950 3.290501 0.221667 1.354021 11.975981 0.313394 2.456017 -13.938603 0.018619 -2.036624 -4.331637 14.585966 -13.848639 -6.896498 41.891021 56.309833 4.635176 23.569717 -3.996347 3.191652 -7.492146 -10.883665 -3.191679 -1.100596 11.167932 -15.478122 -52.388595 -37.891034 4.434408 -30.993352 3.636544 6.343303 21.960677 -12.677634 -29.451787 -4.366579 -80.014735 64.077247 -84.785607 -8.885754 7.017168 -7.317363 1.403521 0.693086 1.158860 1.274467 -42.818078 1.229279 -6.722842 28.028890 -8.805882 0.265565 -11.083577 8.371028 -0.032439 0.593508 0.738098
455.226307 90.376747 -293.261765 160.197013 26.068908 -6.173737 7.924211 9.847582 0.979334 3.519981 4.440475 0.305122 3.519981 4.440475 0.305122 2.636442 3.332244 0.203113 1.253545 11.781203 0.412124 2.223589 -14.303148 0.247496 -2.130570 -4.153529 14.603809 -13.862504 -6.862682 42.566624 56.109934 4.633724 23.228511 -4.005488 3.212029 -7.587065 -10.924806 -2.996706 -1.153947 11.039728 -15.464191 -52.773110 -38.102351 4.363771 -31.208576 3.577977 6.356903 21.919822 -12.891389 -29.385295 -4.461293 -80.460904 64.066765 -85.078442 -9.228826 6.819402 -7.417988 1.592164 0.830838 1.253340 0.598944 -43.734930 1.936467 -6.952948 28.577547 -9.083860 0.293087 -11.337996 8.336182 -0.032540 0.521005 0.598388
455.408301 90.292359 -293.180491 160.748804 26.756988 -6.369410 7.765608 9.901756 0.917098 3.486052 4.493568 0.286565 3.486052 4.493568 0.286565 2.611087 3.371940 0.189142 1.134620 11.595578 0.500923 1.958795 -14.650123 0.466719 -2.243380 -4.015083 14.638078 -13.887081 -6.788354 43.234011 55.905559 4.651556 22.847312 -4.015974 3.193274 -7.686047 -11.018130 -2.818697 -1.204246 10.884892 -15.487919 -53.100234 -38.353771 4.284327 -31.496077 3.539549 6.387637 21.816939 -13.139158 -29.423846 -4.584865 -81.025481 64.070248 -85.460415 -9.577431 6.594116 -7.501038 1.756931 0.976088 1.325199 -0.229561 -44.793973 2.602168 -7.310952 29.180226 -9.382640 0.439375 -11.566019 8.390054 -0.048167 0.452798 0.415012
455.571586 90.184480 -293.097738 161.328030 27.408235 -6.531252 7.669648 9.996131 0.881191 3.451189 4.544101 0.269941 3.451189 4.544101 0.269941 2.585023 3.409728 0.176647 1.017661 11.454517 0.582178 1.699654 -14.913620 0.672269 -2.344724 -3.886770 14.662330 -14.018451 -6.696700 43.808071 55.759967 4.653675 22.586945 -4.015033 3.178653 -7.786892 -11.155065 -2.634178 -1.284427 10.735994 -15.557669 -53.430091 -38.610020 4.201527 -31.720759 3.506458 6.438120 21.708239 -13.316164 -29.497430 -4.722514 -81.748953 64.121455 -85.990318 -9.951565 6.425116 -7.573696 1.870701 1.057443 1.364809 -0.993091 -45.820272 3.158671 -7.869699 29.772574 -9.723245 0.678938 -11.745982 8.529529 -0.053355 0.362372 0.211070
455.701363 90.060075 -293.009364 161.970196 28.075662 -6.601910 7.552379 10.091584 0.849640 3.408425 4.596803 0.259767 3.408425 4.596803 0.259767 2.552989 3.449177 0.169041 0.890274 11.305006 0.673079 1.415327 -15.192286 0.901852 -2.435052 -3.725308 14.668737 -14.128199 -6.670379 44.254673 55.672166 4.700444 22.437935 -4.017789 3.192876 -7.857275 -11.279820 -2.482953 -1.369231 10.591157 -15.605960 -53.815718 -38.881488 4.150078 -31.947407 3.484627 6.462858 21.663944 -13.459504 -29.654482 -4.888462 -82.523404 64.154825 -86.594523 -10.276668 6.311917 -7.628320 1.943370 1.103574 1.375870 -1.877558 -46.839613 3.643051 -8.636477 30.280920 -10.131757 1.150371 -11.881984 8.784383 -0.061179 0.290661 -0.040301
455.821907 89.906541 -292.932324 162.600950 28.696169 -6.631023 7.485007 10.250249 0.836058 3.365628 4.654167 0.252441 3.365628 4.654167 0.252441 2.520905 3.492141 0.163551 0.764424 11.145455 0.769298 1.130525 -15.488882 1.142072 -2.475321 -3.495094 14.630013 -14.227304 -6.737258 44.687436 55.623117 4.790639 22.331243 -4.009942 3.238510 -7.927730 -11.362543 -2.320046 -1.488588 10.474648 -15.716755 -54.232686 -39.163667 4.042741 -32.152071 3.481933 6.474193 21.634087 -13.544769 -29.866329 -5.046504 -83.306507 64.178277 -87.300349 -10.523413 6.290269 -7.651173 1.955659 1.101000 1.355175 -2.875465 -47.840261 4.162611 -9.401497 30.873788 -10.567669 1.636607 -12.046399 9.127984 -0.046330 0.215364 -0.306129
455.950950 89.713928 -292.875819 163.122511 29.254953 -6.700675 7.505873 10.480911 0.878178 3.332625 4.715111 0.249174 3.332625 4.715111 0.249174 2.496130 3.537816 0.161017 0.628088 10.968120 0.861315 0.826120 -15.817693 1.380111 -2.454842 -3.269089 14.580700 -14.268327 -6.809613 45.024210 55.543848 4.847416 22.181749 -4.013098 3.274712 -7.993277 -11.412000 -2.217131 -1.636456 10.347959 -15.784020 -54.641654 -39.414204 3.856503 -32.386572 3.452052 6.483561 21.614014 -13.547560 -30.120513 -5.127202 -84.001291 64.194245 -88.001479 -10.735224 6.341419 -7.701902 1.943819 1.074511 1.317487 -3.848341 -48.882314 4.754555 -10.021704 31.717862 -10.971056 1.930638 -12.268874 9.439279 -0.017962 0.094164 -0.496448
456.085862 89.478085 -292.859522 163.568573 29.850063 -6.749936 7.548263 10.702953 0.893712 3.318260 4.786790 0.241365 3.318260 4.786790 0.241365 2.485351 3.591528 0.154879 0.494316 10.786044 0.945716 0.528718 -16.154560 1.603706 -2.386714 -3.086761 14.495340 -14.253350 -6.846803 45.389317 55.448419 4.864083 21.934620 -4.046650 3.268951 -8.054099 -11.448598 -2.175679 -1.796947 10.277452 -15.863623 -54.990973 -39.709576 3.660230 -32.684160 3.403840 6.480011 21.617591 -13.571473 -30.522591 -5.096008 -84.521011 64.239734 -88.681119 -10.974408 6.430190 -7.765831 1.930426 1.037582 1.268899 -4.816564 -50.051121 5.435768 -10.526690 32.844884 -11.492381 2.065028 -12.694125 9.748593 -0.014633 0.005065 -0.596912
456.226863 89.202577 -292.879220 163.946130 30.466403 -6.794303 7.578791 10.898565 0.880466 3.320635 4.866346 0.232502 3.320635 4.866346 0.232502 2.487122 3.651150 0.147779 0.354189 10.603967 1.038689 0.213819 -16.490530 1.848145 -2.280998 -2.977543 14.449167 -14.157930 -6.834098 45.669684 55.311611 4.826603 21.624635 -4.090497 3.264921 -8.103529 -11.457185 -2.133900 -1.917349 10.228646 -15.928738 -55.300942 -40.061643 3.497331 -33.061585 3.348595 6.464057 21.599881 -13.588634 -31.018743 -4.968159 -84.956728 64.306210 -89.365114 -11.205766 6.456878 -7.803762 1.903545 1.019524 1.205383 -5.835135 -51.278442 6.273286 -11.020412 34.079586 -12.215540 2.142633 -13.196070 10.107084 -0.020347 -0.072582 -0.650217
